<svg xmlns="http://www.w3.org/2000/svg" xmlns:xlink="http://www.w3.org/1999/xlink" width="500" height="500" viewBox="0 0 500 500">
  <defs>
    <linearGradient id="linear-gradient" x1="0.595" y1="0.229" x2="0.101" y2="1.174" gradientUnits="objectBoundingBox">
      <stop offset="0" stop-color="#124c9f" stop-opacity="0"/>
      <stop offset="1" stop-color="#ff21da" stop-opacity="0.82"/>
    </linearGradient>
    <filter id="_Path_" x="39.603" y="129.344" width="420.794" height="240.771" filterUnits="userSpaceOnUse">
      <feOffset input="SourceAlpha"/>
      <feGaussianBlur stdDeviation="3" result="blur"/>
      <feFlood flood-opacity="0.161"/>
      <feComposite operator="in" in2="blur"/>
      <feComposite in="SourceGraphic"/>
    </filter>
    <filter id="_50" x="179" y="182" width="142" height="143" filterUnits="userSpaceOnUse">
      <feOffset dy="3" input="SourceAlpha"/>
      <feGaussianBlur stdDeviation="3" result="blur-2"/>
      <feFlood flood-color="#f9bb3f"/>
      <feComposite operator="in" in2="blur-2"/>
      <feComposite in="SourceGraphic"/>
    </filter>
    <clipPath id="clip-e-Voucher_50">
      <rect width="500" height="500"/>
    </clipPath>
  </defs>
  <g id="e-Voucher_50" data-name="e-Voucher 50" clip-path="url(#clip-e-Voucher_50)">
    <ellipse id="Ellipse_58" data-name="Ellipse 58" cx="212.989" cy="212.989" rx="212.989" ry="212.989" transform="translate(37 37)" fill="url(#linear-gradient)"/>
    <g id="Layer_1" data-name="Layer 1" transform="translate(48.603 138.08)">
      <g id="_Group_" data-name="&lt;Group&gt;" transform="translate(0)">
        <path id="_Path_2" data-name="&lt;Path&gt;" d="M402.794,8.039V0C271,0,134.264,66.831,0,0V8.23c7.008,4.423,12.435,12.482,12.435,19.76,0,7.249-5.426,11.063-12.435,8.5v4.927C7.008,45.844,12.435,53.9,12.435,61.181c0,7.25-5.426,11.062-12.435,8.5v4.926c7.008,4.423,12.435,12.483,12.435,19.761,0,7.25-5.426,11.063-12.435,8.5V107.8c7.008,4.423,12.435,12.483,12.435,19.76,0,7.249-5.426,11.062-12.435,8.5v4.927c7.008,4.423,12.435,12.482,12.435,19.76,0,7.249-5.426,11.063-12.435,8.5v4.926c7.008,4.423,12.435,12.482,12.435,19.761,0,7.249-5.426,11.063-12.435,8.5,0,2.7,0,9.892,0,12.592,149.724,0,266.091-4.493,402.794-4.493v-7.908c-7.91-3.946-14.323-12.784-14.323-20.709,0-7.9,6.413-11.882,14.323-7.936v-4.545c-7.91-3.946-14.323-12.785-14.323-20.71,0-7.895,6.413-11.881,14.323-7.936v-4.546c-7.91-3.945-14.323-12.784-14.323-20.709,0-7.895,6.413-11.882,14.323-7.936v-4.546c-7.91-3.946-14.323-12.784-14.323-20.709,0-7.9,6.413-11.881,14.323-7.936V69.875c-7.91-3.946-14.323-12.784-14.323-20.709,0-7.895,6.413-11.881,14.323-7.936V36.685c-7.91-3.946-14.323-12.784-14.323-20.709C388.471,8.08,394.883,4.094,402.794,8.039Z" transform="translate(0 3.452)" fill="#f48100"/>
        <g transform="matrix(1, 0, 0, 1, -48.6, -138.08)" filter="url(#_Path_)">
          <path id="_Path_3" data-name="&lt;Path&gt;" d="M388.489,16.011c0,7.9,6.381,16.732,14.3,20.685v4.551c-7.924-3.952-14.3.057-14.3,7.924,0,7.94,6.381,16.772,14.3,20.724v4.552c-7.924-3.952-14.3.017-14.3,7.925,0,7.939,6.381,16.772,14.3,20.724v4.51c-7.924-3.952-14.3.057-14.3,7.965,0,7.94,6.381,16.732,14.3,20.684v4.551c-7.924-3.952-14.3.057-14.3,7.966s6.381,16.731,14.3,20.683v4.551c-7.924-3.952-14.3.057-14.3,7.925,0,7.94,6.381,16.773,14.3,20.724v20.115H0V202.453C6.989,205,12.435,201.2,12.435,193.94S6.989,178.627,0,174.211v-4.958c6.989,2.588,12.435-1.253,12.435-8.473,0-7.288-5.445-15.353-12.435-19.77v-4.916c6.989,2.547,12.435-1.254,12.435-8.514,0-7.288-5.445-15.353-12.435-19.77v-4.917c6.989,2.548,12.435-1.254,12.435-8.514,0-7.287-5.445-15.353-12.435-19.769V69.692c6.989,2.546,12.435-1.253,12.435-8.514S6.989,45.866,0,41.449V36.492c6.989,2.547,12.435-1.254,12.435-8.473,0-7.287-5.445-15.353-12.435-19.77V0H402.794V8.046C394.869,4.094,388.489,8.1,388.489,16.011Z" transform="translate(48.6 138.34)" fill="#f9d33f"/>
        </g>
        <g id="_Group_2" data-name="&lt;Group&gt;" transform="translate(41.63 37.529)">
          <g id="_Group_3" data-name="&lt;Group&gt;" transform="translate(0 0)">
            <path id="_Path_4" data-name="&lt;Path&gt;" d="M8.128,149.679c0-1.55-1.838-2.711-3.784-3.939C2.209,144.391,0,143,0,140.8c0-2.213,2.33-2.887,4.386-3.482,2.26-.654,3.742-1.189,3.742-2.612,0-1.551-1.838-2.711-3.784-3.939C2.209,129.422,0,128.027,0,125.834c0-2.211,2.33-2.886,4.386-3.48,2.26-.654,3.742-1.189,3.742-2.613,0-1.55-1.838-2.711-3.784-3.939C2.209,114.453,0,113.058,0,110.867c0-2.212,2.33-2.887,4.386-3.481,2.26-.654,3.742-1.189,3.742-2.613,0-1.55-1.838-2.711-3.784-3.94C2.209,99.485,0,98.091,0,95.9c0-2.212,2.33-2.887,4.386-3.481,2.26-.654,3.742-1.188,3.742-2.611,0-1.552-1.838-2.711-3.784-3.94C2.209,84.517,0,83.122,0,80.93c0-2.212,2.33-2.887,4.386-3.481,2.26-.654,3.742-1.189,3.742-2.612,0-1.552-1.838-2.711-3.784-3.939C2.209,69.549,0,68.154,0,65.963c0-2.212,2.33-2.887,4.386-3.48,2.26-.655,3.742-1.19,3.742-2.612,0-1.55-1.838-2.711-3.784-3.939C2.209,54.582,0,53.188,0,51c0-2.212,2.33-2.887,4.386-3.482,2.26-.654,3.742-1.188,3.742-2.612,0-1.55-1.838-2.711-3.784-3.939C2.209,39.614,0,38.219,0,36.028c0-2.212,2.33-2.886,4.386-3.48,2.26-.654,3.742-1.189,3.742-2.613,0-1.55-1.838-2.711-3.784-3.939C2.209,24.647,0,23.252,0,21.06c0-2.212,2.33-2.886,4.386-3.481,2.26-.654,3.742-1.189,3.742-2.612,0-1.55-1.838-2.711-3.784-3.939C2.209,9.68,0,8.285,0,6.093,0,3.88,2.33,3.206,4.386,2.612,6.646,1.958,8.128,1.423,8.128,0H9.143c0,2.293-2.377,2.981-4.475,3.588-2.206.638-3.652,1.158-3.652,2.505,0,1.632,1.968,2.875,3.871,4.076,2.092,1.321,4.256,2.687,4.256,4.8,0,2.293-2.377,2.982-4.475,3.589-2.206.638-3.652,1.157-3.652,2.5,0,1.632,1.968,2.875,3.871,4.076,2.092,1.322,4.256,2.687,4.256,4.8,0,2.294-2.377,2.982-4.475,3.588-2.206.639-3.652,1.158-3.652,2.505,0,1.632,1.968,2.875,3.871,4.076,2.092,1.321,4.256,2.687,4.256,4.8,0,2.294-2.377,2.981-4.475,3.588C2.462,49.129,1.016,49.648,1.016,51c0,1.632,1.968,2.874,3.871,4.076,2.092,1.32,4.256,2.687,4.256,4.8,0,2.293-2.377,2.981-4.475,3.588-2.206.639-3.652,1.157-3.652,2.505,0,1.632,1.968,2.874,3.871,4.075,2.092,1.322,4.256,2.687,4.256,4.8,0,2.293-2.377,2.982-4.475,3.588-2.206.639-3.652,1.157-3.652,2.505,0,1.632,1.968,2.875,3.871,4.076,2.092,1.322,4.256,2.687,4.256,4.8,0,2.293-2.377,2.981-4.475,3.588-2.206.639-3.652,1.157-3.652,2.505,0,1.633,1.968,2.874,3.871,4.077,2.092,1.321,4.256,2.687,4.256,4.8,0,2.293-2.377,2.982-4.475,3.588-2.206.639-3.652,1.158-3.652,2.506,0,1.632,1.968,2.875,3.871,4.076,2.092,1.322,4.256,2.687,4.256,4.8,0,2.293-2.377,2.982-4.475,3.589-2.206.639-3.652,1.157-3.652,2.5,0,1.633,1.968,2.875,3.872,4.077,2.092,1.321,4.256,2.687,4.256,4.8,0,2.294-2.377,2.982-4.475,3.588-2.206.639-3.652,1.158-3.652,2.506,0,1.632,1.968,2.876,3.871,4.077,2.092,1.321,4.256,2.687,4.256,4.8Z" fill="#f15c24"/>
          </g>
        </g>
        <path id="_Path_5" data-name="&lt;Path&gt;" d="M163.465,16.011c0,7.9,6.38,16.732,14.3,20.684v4.551c-7.925-3.952-14.3.057-14.3,7.925,0,7.939,6.38,16.772,14.3,20.724v4.551c-7.925-3.951-14.3.017-14.3,7.925,0,7.94,6.38,16.773,14.3,20.724v4.511c-7.925-3.951-14.3.057-14.3,7.966,0,7.939,6.38,16.732,14.3,20.684v4.551c-7.925-3.952-14.3.056-14.3,7.965s6.38,16.732,14.3,20.684v4.551c-7.925-3.951-14.3.057-14.3,7.925,0,7.94,6.38,16.772,14.3,20.724v20.115H0c57.867-43.661,101.321-93.908,120.984-133.633a256.684,256.684,0,0,0,20.174-56.415C145.193,15.333,148.782,0,148.782,0h28.987V8.046C169.844,4.094,163.465,8.1,163.465,16.011Z" transform="translate(225.025 0.264)" fill="#ff9100" opacity="0.31"/>
        <path id="_Path_6" data-name="&lt;Path&gt;" d="M261,0S149.321,144.7,79.073,222.356c-27.349,1.324-79.073,0-79.073,0L192.926,0Z" transform="translate(2.372 0.896)" fill="#fff" opacity="0.169"/>
        <path id="_Path_7" data-name="&lt;Path&gt;" d="M213.884,0,30.024,222.8S12.271,220.859,0,222.8C64.065,144.931,180.783,0,180.783,0Z" transform="translate(103.74 0)" fill="#fff" opacity="0.169"/>
        <path id="_Path_8" data-name="&lt;Path&gt;" d="M197.609,0,20.041,222.8s-7.769-1.945-20.041,0C64.065,144.931,180.783,0,180.783,0Z" transform="translate(156.43 0)" fill="#fff" opacity="0.169"/>
        <g id="_Group_4" data-name="&lt;Group&gt;" transform="translate(345.827 26.714)">
          <g id="_Group_5" data-name="&lt;Group&gt;">
            <path id="_Path_9" data-name="&lt;Path&gt;" d="M9.143,149.679H8.127c0-1.629-1.964-2.849-3.867-4.028-2.094-1.3-4.26-2.643-4.26-4.757,0-2.289,2.375-3,4.469-3.632,2.211-.664,3.659-1.2,3.659-2.553,0-1.629-1.967-2.849-3.867-4.027-2.094-1.3-4.26-2.643-4.26-4.757,0-2.288,2.375-3,4.469-3.632,2.211-.664,3.659-1.2,3.659-2.553,0-1.629-1.964-2.847-3.867-4.027-2.094-1.3-4.26-2.642-4.26-4.756,0-2.289,2.375-3,4.469-3.632,2.211-.665,3.659-1.2,3.659-2.553,0-1.629-1.967-2.848-3.867-4.027C2.166,99.446,0,98.1,0,95.99c0-2.289,2.375-3,4.469-3.632,2.211-.664,3.659-1.2,3.659-2.552,0-1.629-1.964-2.849-3.867-4.028C2.166,84.478,0,83.135,0,81.021c0-2.288,2.375-3,4.469-3.631,2.211-.664,3.659-1.2,3.659-2.552,0-1.629-1.964-2.848-3.867-4.028C2.166,69.51,0,68.167,0,66.054c0-2.289,2.375-3,4.469-3.632,2.211-.665,3.659-1.2,3.659-2.552,0-1.629-1.964-2.848-3.867-4.027C2.166,54.543,0,53.2,0,51.086c0-2.288,2.375-3,4.469-3.631,2.211-.664,3.659-1.2,3.659-2.553,0-1.629-1.964-2.847-3.867-4.027C2.166,39.576,0,38.233,0,36.119c0-2.289,2.375-3,4.469-3.632,2.211-.664,3.659-1.2,3.659-2.553,0-1.629-1.967-2.848-3.867-4.027C2.166,24.608,0,23.265,0,21.152c0-2.289,2.375-3,4.469-3.633,2.211-.663,3.659-1.2,3.659-2.551,0-1.629-1.964-2.849-3.867-4.027C2.166,9.641,0,8.3,0,6.184c0-2.289,2.375-3,4.469-3.631C6.68,1.888,8.127,1.352,8.127,0H9.143c0,2.208-2.328,2.908-4.382,3.525C2.5,4.2,1.016,4.758,1.016,6.184c0,1.548,1.836,2.687,3.78,3.893,2.138,1.325,4.348,2.7,4.348,4.891s-2.328,2.908-4.382,3.525c-2.263.681-3.745,1.233-3.745,2.659,0,1.549,1.836,2.687,3.78,3.893,2.138,1.325,4.348,2.7,4.348,4.89,0,2.209-2.328,2.908-4.382,3.526-2.263.68-3.745,1.232-3.745,2.659,0,1.548,1.836,2.687,3.78,3.893,2.139,1.325,4.348,2.7,4.348,4.89s-2.328,2.908-4.382,3.525c-2.263.68-3.745,1.233-3.745,2.658,0,1.548,1.836,2.687,3.78,3.894,2.138,1.325,4.348,2.7,4.348,4.89s-2.328,2.907-4.382,3.525c-2.263.68-3.745,1.232-3.745,2.659,0,1.548,1.836,2.687,3.78,3.892,2.138,1.326,4.348,2.7,4.348,4.892s-2.328,2.907-4.382,3.525c-2.263.68-3.745,1.233-3.745,2.659,0,1.549,1.836,2.688,3.78,3.894,2.138,1.326,4.348,2.7,4.348,4.891S6.816,92.713,4.761,93.33c-2.263.68-3.745,1.232-3.745,2.659,0,1.548,1.836,2.687,3.78,3.892,2.138,1.326,4.348,2.7,4.348,4.891,0,2.209-2.328,2.908-4.382,3.526-2.263.68-3.745,1.232-3.745,2.659,0,1.549,1.836,2.687,3.78,3.893,2.139,1.325,4.348,2.7,4.348,4.89,0,2.209-2.328,2.908-4.382,3.526-2.263.68-3.745,1.233-3.745,2.659,0,1.549,1.836,2.687,3.78,3.893,2.138,1.326,4.348,2.7,4.348,4.891s-2.328,2.908-4.382,3.526c-2.263.68-3.745,1.233-3.745,2.66,0,1.548,1.836,2.687,3.78,3.893C6.935,146.114,9.143,147.485,9.143,149.679Z" fill="#f15c24"/>
          </g>
        </g>
        <g id="Rectangle_28" data-name="Rectangle 28" transform="translate(27.342 15.608)" fill="none" stroke="#f15c24" stroke-width="1">
          <rect width="351.667" height="193.521" rx="2" stroke="none"/>
          <rect x="0.5" y="0.5" width="350.667" height="192.521" rx="1.5" fill="none"/>
        </g>
      </g>
    </g>
    <g transform="matrix(1, 0, 0, 1, 0, 0)" filter="url(#_50)">
      <text id="_50-2" data-name="$50" transform="translate(188 282)" fill="#160026" font-size="104" font-family="BebasNeueBold, Bebas Neue"><tspan x="0" y="0">$50</tspan></text>
    </g>
  </g>
</svg>
